<?xml version="1.0" encoding="utf-8"?>
<!-- Generator: Adobe Illustrator 16.0.0, SVG Export Plug-In . SVG Version: 6.00 Build 0)  -->
<!DOCTYPE svg PUBLIC "-//W3C//DTD SVG 1.1//EN" "http://www.w3.org/Graphics/SVG/1.1/DTD/svg11.dtd">
<svg version="1.1" id="Слой_1" xmlns="http://www.w3.org/2000/svg" xmlns:xlink="http://www.w3.org/1999/xlink" x="0px" y="0px"
	 width="24px" height="24px" viewBox="0 0 24 24" enable-background="new 0 0 24 24" xml:space="preserve">
<path fill="none" d="M0,0h24v24H0V0z"/>
<g>
	<g id="Layer_5_44_">
		<g>
			<path fill="#FFFFFF" d="M7.595,4.871C2.4,5.29-0.498,1.084,0.069,7.965c0.567,6.882,4.839,11.413,8.695,11.1
				c3.858-0.311,7.332-5.464,6.766-12.346C14.961-0.161,12.772,4.454,7.595,4.871z M1.887,9.243C1.863,8.95,2.826,8.17,4.086,8.069
				c1.26-0.101,2.396,1.23,2.419,1.506c0.03,0.367-0.993,0.505-2.256,0.474C2.932,10.016,1.912,9.545,1.887,9.243z M8.512,16.013
				c-1.651,0.134-3.144-1.608-3.215-2.476c-0.02-0.229,0.681,0.837,3.065,0.645c2.378-0.191,2.899-1.366,2.92-1.125
				C11.353,13.923,10.166,15.88,8.512,16.013z M11.744,9.446C10.498,9.645,9.466,9.64,9.44,9.338
				c-0.025-0.293,0.881-1.771,2.141-1.873c1.258-0.102,2.338,0.53,2.362,0.806C13.973,8.638,13.028,9.24,11.744,9.446z"/>
			<path fill="#FFFFFF" d="M17.325,7.371c-0.123-0.024-0.12,0.082-0.114,0.138c0.229,2.798-0.137,5.332-1.175,7.55
				c-0.074,0.152,0.04,0.199,0.096,0.22c1.053,0.393,1.976,1.328,1.786,2.214c-0.022,0.105-0.747-0.626-2.485-0.998
				c-0.016-0.004-0.032-0.008-0.05-0.011c-0.033-0.007-0.111-0.004-0.171,0.097c-0.699,1.108-1.372,1.817-2.303,2.444
				c-0.083,0.061-0.018,0.122,0.021,0.149c0.533,0.379,1.11,0.641,1.715,0.766c3.417,0.713,7.759-2.859,9.058-8.954
				C25.003,4.892,21.917,8.293,17.325,7.371z M21.908,12.422c-0.11,0.354-1.143,0.46-2.232,0.136
				c-1.091-0.326-1.872-0.929-1.783-1.222c0.087-0.284,1.03-0.815,2.368-0.445C21.359,11.194,21.989,12.155,21.908,12.422z"/>
		</g>
	</g>
</g>
</svg>
