<?xml version="1.0" encoding="utf-8"?>
<!-- Generator: Adobe Illustrator 16.0.0, SVG Export Plug-In . SVG Version: 6.00 Build 0)  -->
<!DOCTYPE svg PUBLIC "-//W3C//DTD SVG 1.1//EN" "http://www.w3.org/Graphics/SVG/1.1/DTD/svg11.dtd">
<svg version="1.1" id="Слой_1" xmlns="http://www.w3.org/2000/svg" xmlns:xlink="http://www.w3.org/1999/xlink" x="0px" y="0px"
	 width="24px" height="24px" viewBox="0 0 24 24" enable-background="new 0 0 24 24" xml:space="preserve">
<path fill="#FFFFFF" d="M23,11h-2V9h-2v2h-2v2h2v2h2v-2h2 M8,11v2.4h4c-0.2,1-1.2,3-4,3c-2.4,0-4.3-2-4.3-4.4c0-2.4,1.9-4.4,4.3-4.4
	c1.4,0,2.3,0.6,2.8,1.1l1.9-1.8C11.5,5.7,9.9,5,8,5c-3.9,0-7,3.1-7,7c0,3.9,3.1,7,7,7c4,0,6.7-2.8,6.7-6.8c0-0.5,0-0.8-0.101-1.2H8z
	"/>
</svg>
