<?xml version="1.0" encoding="utf-8"?>
<!-- Generator: Adobe Illustrator 16.0.0, SVG Export Plug-In . SVG Version: 6.00 Build 0)  -->
<!DOCTYPE svg PUBLIC "-//W3C//DTD SVG 1.1//EN" "http://www.w3.org/Graphics/SVG/1.1/DTD/svg11.dtd">
<svg version="1.1" id="Слой_1" xmlns="http://www.w3.org/2000/svg" xmlns:xlink="http://www.w3.org/1999/xlink" x="0px" y="0px"
	 width="24px" height="24px" viewBox="0 0 24 24" enable-background="new 0 0 24 24" xml:space="preserve">
<path fill="#FFFFFF" d="M19.54,14.6c1.55,1.44,1.87,2.131,1.92,2.221c0.64,1.06-0.7,1.14-0.7,1.14L18.18,18
	c0,0-0.56,0.109-1.279-0.391c-0.971-0.659-1.9-2.39-2.59-2.159c-0.711,0.229-0.69,1.78-0.69,1.78s0,0.22-0.16,0.39
	c-0.181,0.19-0.53,0.12-0.53,0.12h-1.15c0,0-2.55,0.26-4.78-2.07c-2.45-2.54-4.61-7.54-4.61-7.54S2.27,7.83,2.4,7.66
	C2.55,7.5,2.97,7.5,2.97,7.5h2.76c0,0,0.27,0,0.44,0.16C6.32,7.77,6.41,8,6.41,8s0.44,1.11,1.04,2.13c1.15,1.99,1.68,2.42,2.05,2.21
	c0.6-0.31,0.43-2.81,0.43-2.81S9.94,8.62,9.64,8.22C9.41,7.91,8.97,7.81,8.78,7.79c-0.16-0.02,0.1-0.38,0.43-0.55
	C9.71,7,10.58,7,11.62,7c0.81,0,1.04,0.06,1.351,0.13C13.93,7.36,13.6,8.25,13.6,10.37c0,0.69-0.1,1.63,0.371,1.96
	C14.18,12.47,14.7,12.35,16,10.16c0.6-1.04,1.061-2.27,1.061-2.27s0.1-0.21,0.25-0.31c0.16-0.08,0.379-0.08,0.379-0.08h2.9
	c0,0,0.881-0.1,1.02,0.29c0.15,0.41-0.33,1.38-1.52,2.95C18.15,13.34,17.93,13.1,19.54,14.6z"/>
</svg>
