<?xml version="1.0" encoding="UTF-8" standalone="no"?>
<svg
   xmlns:dc="http://purl.org/dc/elements/1.1/"
   xmlns:cc="http://creativecommons.org/ns#"
   xmlns:rdf="http://www.w3.org/1999/02/22-rdf-syntax-ns#"
   xmlns:svg="http://www.w3.org/2000/svg"
   xmlns="http://www.w3.org/2000/svg"
   xmlns:xlink="http://www.w3.org/1999/xlink"
   xmlns:sodipodi="http://sodipodi.sourceforge.net/DTD/sodipodi-0.dtd"
   xmlns:inkscape="http://www.inkscape.org/namespaces/inkscape"
   preserveAspectRatio="xMidYMid"
   width="458"
   height="458"
   viewBox="0 0 458 458"
   id="svg2"
   version="1.1"
   inkscape:version="0.48.4 r9939"
   sodipodi:docname="logotvcolor.svg">
  <metadata
     id="metadata24">
    <rdf:RDF>
      <cc:Work
         rdf:about="">
        <dc:format>image/svg+xml</dc:format>
        <dc:type
           rdf:resource="http://purl.org/dc/dcmitype/StillImage" />
        <dc:title></dc:title>
      </cc:Work>
    </rdf:RDF>
  </metadata>
  <sodipodi:namedview
     pagecolor="#ffffff"
     bordercolor="#666666"
     borderopacity="1"
     objecttolerance="10"
     gridtolerance="10"
     guidetolerance="10"
     inkscape:pageopacity="0"
     inkscape:pageshadow="2"
     inkscape:window-width="640"
     inkscape:window-height="480"
     id="namedview22"
     showgrid="false"
     inkscape:zoom="0.51528384"
     inkscape:cx="229"
     inkscape:cy="229"
     inkscape:window-x="0"
     inkscape:window-y="0"
     inkscape:window-maximized="0"
     inkscape:current-layer="svg2" />
  <defs
     id="defs4">
    <style
       id="style6">
      .cls-1 {
        fill: #607d8b;
        stroke: url(#linear-gradient-1);
      }

      .cls-1, .cls-3 {
        stroke-linejoin: round;
        fill-rule: evenodd;
      }

      .cls-1, .cls-2 {
        stroke-width: 16px;
      }

      .cls-2 {
        fill: #00bcd4;
        stroke: url(#linear-gradient-2);
      }

      .cls-3, .cls-4 {
        stroke: #fff;
        stroke-width: 32px;
        fill: none;
      }
    </style>
    <linearGradient
       id="linear-gradient-1"
       gradientUnits="userSpaceOnUse"
       x1="240.281"
       y1="431.656"
       x2="240.281"
       y2="26.344">
      <stop
         offset="0"
         stop-color="#eee"
         stop-opacity="0"
         id="stop9" />
      <stop
         offset="1"
         stop-color="#eee"
         stop-opacity="0"
         id="stop11" />
    </linearGradient>
    <linearGradient
       id="linear-gradient-2"
       x1="135"
       y1="335.656"
       x2="135"
       y2="122.344"
       xlink:href="#linear-gradient-1" />
  </defs>
  <path
     d="M419.545,250.333 C336.167,333.889 220.503,431.667 102.887,431.667 C82.131,431.667 81.599,421.000 70.955,399.667 C17.735,282.333 81.599,286.600 81.599,229.000 C81.599,171.400 17.735,175.667 70.955,58.333 C81.599,37.000 81.599,26.333 102.887,26.333 C219.970,26.333 337.941,125.889 419.545,207.667 C434.269,222.422 434.801,235.044 419.545,250.333 Z"
     class="cls-1"
     id="path14" />
  <circle
     cx="135"
     cy="229"
     r="106.656"
     class="cls-2"
     id="circle16" />
  <path
     d="M419.545,250.333 C336.167,333.889 220.503,431.667 102.887,431.667 C82.131,431.667 81.599,421.000 70.955,399.667 C17.735,282.333 81.599,286.600 81.599,229.000 C81.599,171.400 17.735,175.667 70.955,58.333 C81.599,37.000 81.599,26.333 102.887,26.333 C219.970,26.333 337.941,125.889 419.545,207.667 C434.269,222.422 434.801,235.044 419.545,250.333 Z"
     class="cls-3"
     id="path18" />
  <circle
     cx="135"
     cy="229"
     r="106.656"
     class="cls-4"
     id="circle20" />
</svg>
