<?xml version="1.0" encoding="UTF-8" ?>
<!DOCTYPE svg PUBLIC "-//W3C//DTD SVG 1.1//EN" "http://www.w3.org/Graphics/SVG/1.1/DTD/svg11.dtd">
<svg width="162pt" height="25pt" viewBox="0 0 162 25" version="1.1" xmlns="http://www.w3.org/2000/svg">
<g id="#ffffffff">
<path fill="#ffffff" opacity="1.00" d=" M 7.82 0.06 C 11.88 0.22 15.88 1.52 18.97 4.23 C 16.08 6.55 13.23 8.91 10.21 11.06 C 8.50 10.35 6.70 9.90 4.88 9.59 C 5.87 6.42 6.84 3.24 7.82 0.06 Z" />
<path fill="#ffffff" opacity="1.00" d=" M 22.95 3.97 C 30.13 -0.53 40.28 -1.63 47.07 4.20 C 44.19 6.54 41.30 8.87 38.27 11.02 C 35.65 10.02 32.78 9.25 30.00 10.09 C 24.07 11.77 20.00 16.73 15.00 20.02 C 11.01 22.83 6.27 24.40 1.45 25.00 L 0.21 25.00 C 1.14 21.88 1.95 18.72 3.02 15.64 C 11.21 14.91 16.25 7.76 22.95 3.97 Z" />
<path fill="#ffffff" opacity="1.00" d=" M 51.56 3.62 C 55.34 1.40 59.68 0.42 64.00 0.01 C 63.08 3.16 62.14 6.30 61.23 9.46 C 53.23 10.08 48.23 16.93 41.79 20.77 C 38.27 23.13 34.15 24.32 30.01 25.00 L 26.42 25.00 C 23.04 24.44 19.87 23.03 17.12 20.99 C 19.93 18.60 22.79 16.26 25.82 14.14 C 29.11 15.42 32.88 15.92 36.18 14.35 C 41.88 11.65 46.03 6.62 51.56 3.62 Z" />
<path fill="#ffffff" opacity="1.00" d=" M 71.06 0.81 C 73.09 0.81 75.12 0.81 77.16 0.82 C 74.08 8.29 71.00 15.76 67.95 23.25 C 65.92 23.25 63.89 23.25 61.87 23.25 C 64.90 15.76 67.98 8.28 71.06 0.81 Z" />
<path fill="#ffffff" opacity="1.00" d=" M 150.33 0.82 C 152.38 0.81 154.44 0.81 156.50 0.81 C 155.94 2.12 155.38 3.43 154.83 4.74 C 157.21 4.74 159.60 4.75 161.99 4.81 C 161.37 6.48 160.75 8.15 160.11 9.82 C 157.67 9.81 155.24 9.81 152.81 9.82 C 151.69 12.46 150.56 15.11 149.72 17.85 C 152.49 18.55 155.36 18.30 158.19 18.22 C 157.54 19.88 156.88 21.54 156.22 23.19 C 153.79 23.22 151.34 23.41 148.93 23.02 C 145.72 22.43 143.06 18.75 144.42 15.56 C 146.32 10.62 148.41 5.75 150.33 0.82 Z" />
<path fill="#ffffff" opacity="1.00" d=" M 75.49 10.45 C 76.46 7.64 78.86 5.23 81.91 4.92 C 87.46 4.67 93.01 4.75 98.56 4.83 C 96.06 10.97 93.57 17.11 91.06 23.25 C 89.03 23.25 87.01 23.25 84.98 23.25 C 86.79 18.77 88.59 14.28 90.53 9.86 C 87.72 9.76 84.91 9.80 82.11 10.01 C 80.54 12.53 79.45 15.30 78.89 18.22 C 80.62 18.24 82.35 18.29 84.09 18.31 C 83.44 19.98 82.79 21.64 82.15 23.31 C 79.16 23.34 75.42 23.07 73.89 20.04 C 72.21 16.84 74.31 13.43 75.49 10.45 Z" />
<path fill="#ffffff" opacity="1.00" d=" M 94.39 23.18 C 97.09 17.10 99.41 10.85 102.06 4.75 C 106.04 4.81 110.02 4.60 113.99 4.89 C 117.45 5.02 120.74 8.57 119.71 12.07 C 118.43 15.89 116.70 19.54 115.17 23.26 C 113.14 23.25 111.11 23.23 109.09 23.20 C 110.95 18.85 112.86 14.50 114.32 9.99 C 111.56 9.85 108.80 9.80 106.05 9.81 C 104.22 14.31 102.38 18.80 100.49 23.27 C 98.45 23.24 96.42 23.21 94.39 23.18 Z" />
<path fill="#ffffff" opacity="1.00" d=" M 125.17 4.81 C 130.30 5.17 135.93 3.60 140.67 6.20 C 144.12 8.63 142.90 13.43 141.12 16.52 C 137.15 16.48 133.18 16.52 129.22 16.49 C 129.78 15.20 130.34 13.92 130.90 12.63 C 132.84 12.60 134.80 12.57 136.75 12.55 C 136.91 11.91 137.24 10.64 137.41 10.00 C 134.67 9.84 131.93 9.77 129.19 9.81 C 127.99 12.55 126.83 15.31 126.02 18.19 C 130.84 18.26 135.65 18.28 140.47 18.32 C 139.73 19.96 139.00 21.61 138.27 23.25 C 134.16 23.20 130.05 23.37 125.96 23.09 C 122.64 22.92 119.58 19.41 120.62 16.08 C 121.92 12.24 123.61 8.55 125.17 4.81 Z" />
<path fill="#ffffff" opacity="1.00" d=" M 45.13 20.91 C 48.00 18.59 50.89 16.29 53.84 14.07 C 55.64 14.63 57.45 15.16 59.27 15.67 C 58.28 18.78 57.30 21.89 56.33 25.00 L 55.38 25.00 C 51.64 24.67 48.05 23.29 45.13 20.91 Z" />
</g>
</svg>
