<?xml version="1.0" encoding="utf-8"?>
<!-- Generator: Adobe Illustrator 16.0.0, SVG Export Plug-In . SVG Version: 6.00 Build 0)  -->
<!DOCTYPE svg PUBLIC "-//W3C//DTD SVG 1.1//EN" "http://www.w3.org/Graphics/SVG/1.1/DTD/svg11.dtd">
<svg version="1.1" id="Слой_1" xmlns="http://www.w3.org/2000/svg" xmlns:xlink="http://www.w3.org/1999/xlink" x="0px" y="0px"
	 width="48px" height="48px" viewBox="0 0 48 48" enable-background="new 0 0 48 48" xml:space="preserve">
<path fill="none" d="M0,0h48v48H0V0z"/>
<g>
	<g id="Layer_5_44_">
		<g>
			<path fill="#FFFFFF" d="M15.191,9.801C4.801,10.638-0.993,2.226,0.14,15.988c1.133,13.764,9.677,22.823,17.39,22.201
				c7.716-0.623,14.663-10.93,13.529-24.691C29.924-0.265,25.548,8.967,15.191,9.801z M3.776,18.544
				c-0.048-0.587,1.878-2.145,4.398-2.348c2.518-0.203,4.792,2.461,4.838,3.011c0.061,0.733-1.987,1.012-4.511,0.948
				C5.867,20.089,3.826,19.148,3.776,18.544z M17.027,32.083c-3.305,0.267-6.289-3.218-6.431-4.948
				c-0.039-0.461,1.36,1.67,6.13,1.286c4.756-0.383,5.8-2.732,5.839-2.252C22.708,27.901,20.334,31.817,17.027,32.083z
				 M23.491,18.949c-2.495,0.398-4.558,0.39-4.608-0.214c-0.048-0.587,1.763-3.542,4.283-3.745c2.519-0.203,4.677,1.061,4.724,1.612
				C27.948,17.334,26.061,18.538,23.491,18.949z"/>
			<path fill="#FFFFFF" d="M34.652,14.8c-0.246-0.049-0.24,0.163-0.229,0.276c0.461,5.596-0.273,10.662-2.349,15.098
				c-0.147,0.306,0.08,0.399,0.192,0.441c2.104,0.786,3.95,2.654,3.571,4.427c-0.046,0.209-1.493-1.25-4.969-1.995
				c-0.033-0.008-0.067-0.016-0.102-0.021c-0.065-0.015-0.225-0.007-0.343,0.191c-1.396,2.218-2.743,3.635-4.604,4.888
				c-0.164,0.124-0.036,0.246,0.041,0.302c1.066,0.756,2.222,1.28,3.433,1.532c6.833,1.424,15.518-5.722,18.114-17.909
				C50.007,9.842,43.835,16.646,34.652,14.8z M43.817,24.901c-0.219,0.71-2.283,0.923-4.464,0.271
				c-2.181-0.652-3.744-1.857-3.566-2.443c0.174-0.568,2.062-1.63,4.735-0.891C42.722,22.445,43.979,24.368,43.817,24.901z"/>
		</g>
	</g>
</g>
</svg>
