<?xml version="1.0" encoding="utf-8"?>
<!-- Generator: Adobe Illustrator 16.0.0, SVG Export Plug-In . SVG Version: 6.00 Build 0)  -->
<!DOCTYPE svg PUBLIC "-//W3C//DTD SVG 1.1//EN" "http://www.w3.org/Graphics/SVG/1.1/DTD/svg11.dtd">
<svg version="1.1" id="Слой_1" xmlns="http://www.w3.org/2000/svg" xmlns:xlink="http://www.w3.org/1999/xlink" x="0px" y="0px"
	 width="18px" height="18px" viewBox="0 0 18 18" enable-background="new 0 0 18 18" xml:space="preserve">
<path fill="none" d="M0,0h18v18H0V0z"/>
<path fill="none" d="M0-1h18v18H0V-1z"/>
<g>
	<g id="Layer_5_44_">
		<g>
			<path fill="#FFFFFF" d="M5.696,3.653C1.8,3.967-0.374,0.813,0.051,5.974c0.425,5.161,3.629,8.56,6.521,8.325
				c2.894-0.232,5.499-4.098,5.074-9.259C11.221-0.122,9.579,3.34,5.696,3.653z M1.415,6.932c-0.018-0.22,0.705-0.805,1.649-0.881
				s1.797,0.923,1.815,1.13C4.901,7.456,4.134,7.56,3.187,7.537C2.199,7.511,1.434,7.159,1.415,6.932z M6.383,12.01
				c-1.238,0.1-2.357-1.207-2.411-1.857c-0.015-0.172,0.511,0.627,2.299,0.484c1.783-0.145,2.174-1.025,2.19-0.845
				C8.515,10.441,7.624,11.91,6.383,12.01z M8.808,7.084C7.873,7.233,7.099,7.229,7.08,7.003c-0.019-0.22,0.661-1.329,1.606-1.404
				c0.944-0.076,1.753,0.397,1.771,0.604C10.479,6.478,9.771,6.93,8.808,7.084z"/>
			<path fill="#FFFFFF" d="M12.993,5.527c-0.092-0.018-0.09,0.062-0.085,0.104c0.172,2.099-0.103,4-0.882,5.662
				c-0.056,0.115,0.03,0.15,0.072,0.166c0.789,0.293,1.481,0.996,1.34,1.66c-0.018,0.078-0.561-0.471-1.864-0.748
				c-0.012-0.004-0.024-0.006-0.037-0.01c-0.025-0.004-0.084-0.002-0.129,0.074c-0.524,0.83-1.028,1.361-1.727,1.832
				c-0.063,0.045-0.014,0.092,0.016,0.113c0.4,0.283,0.833,0.48,1.286,0.574c2.563,0.533,5.819-2.145,6.794-6.716
				C18.752,3.668,16.438,6.22,12.993,5.527z M16.431,9.316c-0.083,0.266-0.856,0.344-1.674,0.102
				c-0.818-0.244-1.404-0.696-1.338-0.916c0.065-0.213,0.772-0.611,1.776-0.334C16.02,8.395,16.491,9.115,16.431,9.316z"/>
		</g>
	</g>
</g>
</svg>
