<?xml version="1.0" encoding="utf-8"?>
<!-- Generator: Adobe Illustrator 16.0.0, SVG Export Plug-In . SVG Version: 6.00 Build 0)  -->
<!DOCTYPE svg PUBLIC "-//W3C//DTD SVG 1.1//EN" "http://www.w3.org/Graphics/SVG/1.1/DTD/svg11.dtd">
<svg version="1.1" id="Слой_1" xmlns="http://www.w3.org/2000/svg" xmlns:xlink="http://www.w3.org/1999/xlink" x="0px" y="0px"
	 width="36px" height="36px" viewBox="0 0 36 36" enable-background="new 0 0 36 36" xml:space="preserve">
<path fill="none" d="M0,0h36v36H0V0z"/>
<g>
	<g id="Layer_5_44_">
		<g>
			<path fill="#FFFFFF" d="M11.394,7.351C3.601,7.979-0.745,1.669,0.105,11.992c0.85,10.324,7.258,17.118,13.042,16.651
				c5.787-0.467,10.998-8.196,10.147-18.519S19.161,6.725,11.394,7.351z M2.832,13.908c-0.036-0.44,1.409-1.609,3.299-1.761
				c1.889-0.152,3.595,1.846,3.628,2.259c0.046,0.55-1.49,0.758-3.383,0.711C4.4,15.067,2.87,14.362,2.832,13.908z M12.771,24.063
				c-2.479,0.2-4.717-2.413-4.823-3.712c-0.03-0.346,1.02,1.253,4.598,0.965c3.567-0.287,4.35-2.05,4.38-1.688
				C17.031,20.927,15.251,23.863,12.771,24.063z M17.618,14.212c-1.87,0.299-3.418,0.292-3.456-0.161
				c-0.037-0.44,1.321-2.657,3.212-2.809c1.888-0.152,3.508,0.796,3.542,1.209C20.962,13.001,19.546,13.904,17.618,14.212z"/>
			<path fill="#FFFFFF" d="M25.99,11.1c-0.185-0.037-0.181,0.123-0.172,0.207c0.346,4.197-0.205,7.998-1.762,11.324
				c-0.111,0.229,0.06,0.3,0.144,0.331c1.579,0.59,2.963,1.991,2.68,3.32c-0.034,0.157-1.121-0.938-3.728-1.496
				c-0.024-0.006-0.051-0.012-0.076-0.016c-0.049-0.012-0.168-0.006-0.257,0.143c-1.048,1.663-2.058,2.727-3.454,3.667
				c-0.123,0.092-0.026,0.184,0.032,0.226c0.8,0.567,1.666,0.96,2.573,1.148c5.126,1.068,11.639-4.29,13.587-13.432
				C37.507,7.382,32.878,12.484,25.99,11.1z M32.864,18.677c-0.164,0.532-1.713,0.691-3.349,0.203
				c-1.635-0.489-2.808-1.393-2.674-1.832c0.13-0.426,1.546-1.223,3.551-0.669C32.043,16.834,32.985,18.276,32.864,18.677z"/>
		</g>
	</g>
</g>
</svg>
