<?xml version="1.0" encoding="utf-8"?>
<!-- Generator: Adobe Illustrator 16.0.0, SVG Export Plug-In . SVG Version: 6.00 Build 0)  -->
<!DOCTYPE svg PUBLIC "-//W3C//DTD SVG 1.1//EN" "http://www.w3.org/Graphics/SVG/1.1/DTD/svg11.dtd">
<svg version="1.1" id="Слой_1" xmlns="http://www.w3.org/2000/svg" xmlns:xlink="http://www.w3.org/1999/xlink" x="0px" y="0px"
	 width="24px" height="24px" viewBox="0 0 24 24" enable-background="new 0 0 24 24" xml:space="preserve">
<g>
	<path fill="#FFFFFF" d="M21.334,10.382V3.818c-4.593,1.249-8.175,3.709-11.226,5.808c-2.69,1.852-4.852,3.335-7.442,4.044v6.564
		c4.689-1.232,8.328-3.732,11.418-5.861C16.708,12.568,18.827,11.111,21.334,10.382z"/>
	<path fill="#FFFFFF" d="M9.068,8.385c1.098-0.754,2.291-1.577,3.604-2.388c-1.971-1.688-4.786-3-9.416-3
		C3.06,2.998,2.861,3,2.666,3.006v7.021c0.992,0.168,1.788,0.473,2.469,0.888C6.269,10.293,7.507,9.458,9.068,8.385z"/>
	<path fill="#FFFFFF" d="M15.123,15.615c-1.096,0.754-2.292,1.576-3.603,2.387c1.974,1.686,5.162,3,9.791,3l0.022-7.066
		c-0.903-0.174-1.641-0.463-2.275-0.852C17.924,13.705,16.685,14.541,15.123,15.615z"/>
</g>
</svg>
